<mxfile host="app.diagrams.net" modified="2021-02-07T04:35:17.361Z" agent="5.0 (Windows NT 10.0; Win64; x64) AppleWebKit/537.36 (KHTML, like Gecko) Chrome/88.0.4324.146 Safari/537.36" etag="GwPw7prZ8PSE5lGPlaHi" version="14.2.9" type="github">
  <diagram id="C5RBs43oDa-KdzZeNtuy" name="Page-1">
    <mxGraphModel dx="1422" dy="800" grid="0" gridSize="10" guides="1" tooltips="1" connect="1" arrows="1" fold="1" page="1" pageScale="1" pageWidth="827" pageHeight="1169" background="#BDBDBD" math="0" shadow="0">
      <root>
        <mxCell id="WIyWlLk6GJQsqaUBKTNV-0" />
        <mxCell id="WIyWlLk6GJQsqaUBKTNV-1" parent="WIyWlLk6GJQsqaUBKTNV-0" />
        <mxCell id="BpsMeZ0QMXesTxCKO3Zf-5" value="" style="shape=parallelogram;perimeter=parallelogramPerimeter;whiteSpace=wrap;html=1;fixedSize=1;" vertex="1" parent="WIyWlLk6GJQsqaUBKTNV-1">
          <mxGeometry x="240" y="140" width="120" height="60" as="geometry" />
        </mxCell>
        <mxCell id="BpsMeZ0QMXesTxCKO3Zf-6" value="" style="shape=parallelogram;perimeter=parallelogramPerimeter;whiteSpace=wrap;html=1;fixedSize=1;" vertex="1" parent="WIyWlLk6GJQsqaUBKTNV-1">
          <mxGeometry x="440" y="140" width="120" height="60" as="geometry" />
        </mxCell>
        <mxCell id="BpsMeZ0QMXesTxCKO3Zf-7" value="" style="rounded=0;whiteSpace=wrap;html=1;" vertex="1" parent="WIyWlLk6GJQsqaUBKTNV-1">
          <mxGeometry x="440" y="260" width="120" height="60" as="geometry" />
        </mxCell>
        <mxCell id="BpsMeZ0QMXesTxCKO3Zf-8" value="" style="rounded=0;whiteSpace=wrap;html=1;" vertex="1" parent="WIyWlLk6GJQsqaUBKTNV-1">
          <mxGeometry x="240" y="260" width="120" height="60" as="geometry" />
        </mxCell>
        <mxCell id="BpsMeZ0QMXesTxCKO3Zf-9" value="" style="ellipse;whiteSpace=wrap;html=1;" vertex="1" parent="WIyWlLk6GJQsqaUBKTNV-1">
          <mxGeometry x="340" y="360" width="120" height="80" as="geometry" />
        </mxCell>
        <mxCell id="BpsMeZ0QMXesTxCKO3Zf-11" value="" style="endArrow=classic;html=1;exitX=1;exitY=1;exitDx=0;exitDy=0;entryX=0.5;entryY=0;entryDx=0;entryDy=0;" edge="1" parent="WIyWlLk6GJQsqaUBKTNV-1" source="BpsMeZ0QMXesTxCKO3Zf-4" target="BpsMeZ0QMXesTxCKO3Zf-6">
          <mxGeometry width="50" height="50" relative="1" as="geometry">
            <mxPoint x="440" y="80" as="sourcePoint" />
            <mxPoint x="460" y="140" as="targetPoint" />
          </mxGeometry>
        </mxCell>
        <mxCell id="BpsMeZ0QMXesTxCKO3Zf-12" value="" style="endArrow=classic;html=1;exitX=0;exitY=1;exitDx=0;exitDy=0;entryX=0.5;entryY=0;entryDx=0;entryDy=0;" edge="1" parent="WIyWlLk6GJQsqaUBKTNV-1" source="BpsMeZ0QMXesTxCKO3Zf-4" target="BpsMeZ0QMXesTxCKO3Zf-5">
          <mxGeometry width="50" height="50" relative="1" as="geometry">
            <mxPoint x="399" y="85" as="sourcePoint" />
            <mxPoint x="356" y="140" as="targetPoint" />
          </mxGeometry>
        </mxCell>
        <mxCell id="BpsMeZ0QMXesTxCKO3Zf-13" value="" style="endArrow=classic;html=1;exitX=0.5;exitY=1;exitDx=0;exitDy=0;entryX=0.5;entryY=0;entryDx=0;entryDy=0;" edge="1" parent="WIyWlLk6GJQsqaUBKTNV-1" source="BpsMeZ0QMXesTxCKO3Zf-5" target="BpsMeZ0QMXesTxCKO3Zf-8">
          <mxGeometry width="50" height="50" relative="1" as="geometry">
            <mxPoint x="300" y="200" as="sourcePoint" />
            <mxPoint x="267" y="255" as="targetPoint" />
            <Array as="points" />
          </mxGeometry>
        </mxCell>
        <mxCell id="BpsMeZ0QMXesTxCKO3Zf-14" value="" style="endArrow=classic;html=1;exitX=0.5;exitY=1;exitDx=0;exitDy=0;entryX=0.5;entryY=0;entryDx=0;entryDy=0;" edge="1" parent="WIyWlLk6GJQsqaUBKTNV-1" source="BpsMeZ0QMXesTxCKO3Zf-6" target="BpsMeZ0QMXesTxCKO3Zf-7">
          <mxGeometry width="50" height="50" relative="1" as="geometry">
            <mxPoint x="500" y="200" as="sourcePoint" />
            <mxPoint x="458" y="248" as="targetPoint" />
          </mxGeometry>
        </mxCell>
        <mxCell id="BpsMeZ0QMXesTxCKO3Zf-15" value="" style="endArrow=classic;html=1;exitX=0.5;exitY=1;exitDx=0;exitDy=0;entryX=0;entryY=0;entryDx=0;entryDy=0;" edge="1" parent="WIyWlLk6GJQsqaUBKTNV-1" source="BpsMeZ0QMXesTxCKO3Zf-8" target="BpsMeZ0QMXesTxCKO3Zf-9">
          <mxGeometry width="50" height="50" relative="1" as="geometry">
            <mxPoint x="198" y="355" as="sourcePoint" />
            <mxPoint x="283" y="387" as="targetPoint" />
          </mxGeometry>
        </mxCell>
        <mxCell id="BpsMeZ0QMXesTxCKO3Zf-16" value="" style="endArrow=classic;html=1;entryX=0.908;entryY=0.15;entryDx=0;entryDy=0;entryPerimeter=0;exitX=0.5;exitY=1;exitDx=0;exitDy=0;" edge="1" parent="WIyWlLk6GJQsqaUBKTNV-1" source="BpsMeZ0QMXesTxCKO3Zf-7" target="BpsMeZ0QMXesTxCKO3Zf-9">
          <mxGeometry width="50" height="50" relative="1" as="geometry">
            <mxPoint x="522" y="330" as="sourcePoint" />
            <mxPoint x="447" y="383" as="targetPoint" />
          </mxGeometry>
        </mxCell>
        <mxCell id="BpsMeZ0QMXesTxCKO3Zf-4" value="input h" style="ellipse;whiteSpace=wrap;html=1;" vertex="1" parent="WIyWlLk6GJQsqaUBKTNV-1">
          <mxGeometry x="340" y="10" width="120" height="80" as="geometry" />
        </mxCell>
      </root>
    </mxGraphModel>
  </diagram>
</mxfile>
